<svg width="183" height="33" viewBox="0 0 183 33" fill="none" xmlns="http://www.w3.org/2000/svg">
<path fill-rule="evenodd" clip-rule="evenodd" d="M7.14382 31.587H0V1.94629H20.1758V7.7645H7.14382V13.8431H18.8913V19.6757H7.14382V31.587Z" fill="#222222" stroke="#222222" stroke-width="0.944882" stroke-linecap="round"/>
<path fill-rule="evenodd" clip-rule="evenodd" d="M36.2095 16.4766V16.4043C36.212 16.1556 36.1788 15.9079 36.1107 15.6687C35.9981 15.2776 35.765 14.9321 35.4447 14.6819C35.1638 14.4629 34.8416 14.3031 34.4975 14.2122C34.1658 14.1202 33.7935 14.0742 33.3808 14.0742C33.0706 14.0723 32.7607 14.098 32.455 14.1509C32.1151 14.2118 31.8081 14.309 31.5338 14.4425C31.3926 14.5109 31.2573 14.591 31.1295 14.6819C30.5661 15.0805 30.1783 15.6821 30.0471 16.3609L23.5383 16.1293C23.7169 14.8121 24.2314 13.5633 25.0321 12.5038C25.6044 11.7527 26.3122 11.1158 27.1187 10.6263C27.5138 10.3834 27.9257 10.1693 28.3513 9.98554C29.7609 9.37284 31.4566 9.06649 33.4386 9.06649C34.2426 9.06383 35.0457 9.12265 35.8408 9.24246C36.3497 9.32011 36.8535 9.42806 37.3497 9.56575C38.0094 9.7468 38.6506 9.99033 39.2644 10.293C39.6835 10.501 40.0856 10.7417 40.4669 11.0131C41.325 11.6145 42.0296 12.4103 42.5234 13.336C42.8867 14.0302 43.1165 14.7867 43.2008 15.5661C43.2355 15.8684 43.2527 16.1724 43.2522 16.4766V31.5865H36.6136V28.4892H36.4404C36.0994 29.1497 35.6462 29.7456 35.1012 30.2501C35.0459 30.301 34.9895 30.3508 34.9323 30.3997C34.3746 30.8715 33.7362 31.2382 33.0481 31.4818C32.96 31.5137 32.8712 31.5437 32.7819 31.572C32.2831 31.7275 31.7707 31.835 31.2515 31.8932C30.8373 31.9405 30.4207 31.9637 30.0039 31.9627C29.3429 31.9659 28.683 31.9077 28.0326 31.7891C27.4179 31.6768 26.818 31.4947 26.2444 31.2464C25.1524 30.7687 24.2913 30.045 23.6611 29.0754C23.0659 28.1597 22.7517 27.0224 22.7186 25.6635C22.7167 25.5827 22.7157 25.5018 22.7158 25.4209C22.7158 24.1859 22.9323 23.1438 23.3652 22.2947C23.7804 21.4661 24.3956 20.7547 25.1547 20.2251C25.9148 19.6944 26.7903 19.2916 27.7814 19.0166C28.5504 18.8052 29.3335 18.6488 30.1247 18.5486C30.4012 18.5129 30.6785 18.4832 30.9564 18.4594C31.2563 18.432 31.5561 18.4026 31.8556 18.3713C32.5889 18.2943 33.2203 18.2143 33.7497 18.1313C33.8337 18.1182 33.9176 18.1045 34.0014 18.0904C34.2028 18.0569 34.4029 18.0156 34.6012 17.9668C34.9916 17.8693 35.307 17.751 35.5473 17.612C35.5936 17.5853 35.6388 17.5565 35.6827 17.5259C35.8258 17.4301 35.9461 17.3039 36.0351 17.1563C36.1242 17.0087 36.1797 16.8433 36.1979 16.6717C36.2058 16.607 36.2096 16.5418 36.2095 16.4766ZM36.2528 23.6842V21.5711C36.0507 21.6773 35.8078 21.7738 35.524 21.8606C35.2402 21.9474 34.9299 22.0294 34.5931 22.1066C34.2564 22.1838 33.91 22.2513 33.5541 22.3092C33.2954 22.3513 33.0365 22.392 32.7774 22.4314C32.6948 22.4439 32.6121 22.4563 32.5293 22.4685C31.9394 22.5627 31.4274 22.7028 30.9932 22.8885C30.9396 22.9115 30.8864 22.9354 30.8336 22.9605C30.6401 23.0512 30.4562 23.1613 30.2847 23.2892C30.0846 23.4379 29.9094 23.6177 29.7657 23.8217C29.569 24.1068 29.4478 24.4374 29.4135 24.7824C29.4028 24.8791 29.3976 24.9763 29.3977 25.0736C29.3951 25.3159 29.4286 25.5573 29.4971 25.7898C29.6138 26.178 29.8554 26.5165 30.1842 26.7524C30.5082 26.9872 30.8774 27.1519 31.2683 27.2358C31.541 27.2975 31.8356 27.3293 32.1523 27.3312C32.1625 27.3313 32.1728 27.3313 32.183 27.3313C32.6079 27.334 33.0313 27.2805 33.4423 27.1724C33.7178 27.0987 33.9849 26.9968 34.2396 26.8683C34.8309 26.5767 35.3358 26.1351 35.7043 25.5874C36.0153 25.1199 36.1996 24.5794 36.2393 24.0189C36.2484 23.9076 36.2529 23.7959 36.2528 23.6842Z" fill="#222222" stroke="#222222" stroke-width="0.944882" stroke-linecap="round"/>
<path fill-rule="evenodd" clip-rule="evenodd" d="M54.6101 31.5869H47.553V9.35644H54.6101V31.5869ZM51.0888 6.76579C50.0977 6.76579 49.2463 6.43533 48.5343 5.77441C48.2069 5.4776 47.9409 5.11915 47.7514 4.71944C47.5592 4.29913 47.4619 3.84145 47.4664 3.37908C47.4625 2.95145 47.5467 2.52761 47.7136 2.13409C47.8806 1.74056 48.1267 1.38583 48.4366 1.09206C48.4686 1.06028 48.5012 1.02903 48.5343 0.998325C49.2463 0.337332 50.0977 0.00683594 51.0888 0.00683594C52.0894 0.00683594 52.9433 0.337332 53.6504 0.998325C53.9656 1.28631 54.2239 1.63128 54.4118 2.01518C54.6133 2.4412 54.7157 2.90758 54.7111 3.37908C54.7161 3.8084 54.6332 4.23418 54.4675 4.63005C54.3017 5.02591 54.0567 5.38344 53.7475 5.68046C53.7157 5.71232 53.6833 5.74364 53.6504 5.77441C52.9593 6.42915 52.0393 6.78521 51.0888 6.76579Z" fill="#222222" stroke="#222222" stroke-width="0.944882" stroke-linecap="round"/>
<path fill-rule="evenodd" clip-rule="evenodd" d="M66.1411 31.5869H59.084V9.3564H65.9391V13.4088H66.17C66.5741 11.9422 67.2332 10.8495 68.1472 10.1307C69.055 9.41391 70.1815 9.0331 71.3366 9.05246C71.6309 9.0529 71.925 9.06953 72.2174 9.10229C72.2606 9.10706 72.3037 9.11216 72.3469 9.11757C72.5656 9.14455 72.7828 9.18243 72.9977 9.23107C73.1038 9.25528 73.2092 9.2826 73.3138 9.31299V15.464C73.1813 15.4191 73.0468 15.3806 72.9106 15.3485C72.6473 15.2854 72.3415 15.2322 71.9933 15.189C71.7675 15.1606 71.5411 15.1375 71.3143 15.1197C71.0899 15.1024 70.8781 15.0921 70.6788 15.0888C70.6335 15.0881 70.5882 15.0877 70.5428 15.0877C69.7058 15.0877 68.9529 15.2734 68.2843 15.6449C67.6271 16.0051 67.0825 16.5412 66.7112 17.1934C66.4476 17.6582 66.274 18.1688 66.1996 18.6983C66.1599 18.9692 66.1404 19.2426 66.1411 19.5164V31.5869Z" fill="#222222" stroke="#222222" stroke-width="0.944882" stroke-linecap="round"/>
<path fill-rule="evenodd" clip-rule="evenodd" d="M90.1558 31.587H83.2862L74.6848 1.94629H82.579L87.0385 21.369H87.2838L92.3783 1.94629H98.8148L103.909 21.4125H104.155L108.629 1.94629H116.508L107.921 31.587H101.037L95.712 13.6115H95.4811L90.1558 31.587Z" fill="#222222" stroke="#222222" stroke-width="0.944882" stroke-linecap="round"/>
<path fill-rule="evenodd" clip-rule="evenodd" d="M140.35 20.4133V22.179H121.083V18.0687H133.783C133.781 17.6541 133.718 17.2421 133.598 16.8456C133.512 16.5701 133.395 16.3055 133.249 16.057C132.91 15.475 132.418 14.9971 131.828 14.6748C131.373 14.4261 130.874 14.2685 130.359 14.2107C130.159 14.1869 129.958 14.1752 129.757 14.1755C128.968 14.1755 128.261 14.3516 127.635 14.7038C127.01 15.0559 126.514 15.5335 126.149 16.1366C125.783 16.7396 125.591 17.4222 125.572 18.1844V22.3672C125.569 22.7704 125.609 23.1728 125.689 23.5679C125.772 23.9788 125.913 24.3759 126.105 24.748C126.461 25.4282 126.967 25.9565 127.621 26.3328C128.045 26.5732 128.508 26.7371 128.989 26.8171C129.31 26.8718 129.634 26.8986 129.959 26.8972C130.584 26.8972 131.152 26.8104 131.662 26.6367C131.999 26.524 132.318 26.3643 132.611 26.1622C132.739 26.0731 132.861 25.9754 132.975 25.8697C133.341 25.5294 133.622 25.1067 133.793 24.6365C133.795 24.6327 133.796 24.6288 133.798 24.625L140.278 24.8131C140.008 26.27 139.419 27.5364 138.51 28.6122C137.808 29.4333 136.958 30.1137 136.005 30.6174C135.658 30.8033 135.302 30.9697 134.938 31.1161C134.071 31.4599 133.167 31.7009 132.245 31.8343C131.445 31.9517 130.637 32.0092 129.829 32.0062C128.869 32.0113 127.912 31.9227 126.969 31.7416C125.873 31.5328 124.815 31.1559 123.832 30.6241C122.177 29.7264 120.829 28.3496 119.965 26.6729C119.429 25.6372 119.055 24.5254 118.855 23.376C118.691 22.4459 118.611 21.5027 118.615 20.5581C118.615 18.2617 119.068 16.2523 119.972 14.5301C120.837 12.8495 122.164 11.4531 123.796 10.5065C124.914 9.86311 126.141 9.43258 127.415 9.2367C128.141 9.12099 128.876 9.06409 129.612 9.06654C130.508 9.0625 131.402 9.14969 132.281 9.32677C132.846 9.44238 133.401 9.60215 133.942 9.80463C135.25 10.2967 136.381 11.0252 137.333 11.9901C138.079 12.7528 138.693 13.6352 139.149 14.6008C139.299 14.9135 139.435 15.2327 139.556 15.5576C139.863 16.3915 140.079 17.2566 140.198 18.1376C140.301 18.8917 140.352 19.6521 140.35 20.4133Z" fill="#222222" stroke="#222222" stroke-width="0.944882" stroke-linecap="round"/>
<path fill-rule="evenodd" clip-rule="evenodd" d="M156.427 16.4766V16.4043C156.429 16.1556 156.396 15.9079 156.328 15.6687C156.215 15.2776 155.982 14.9321 155.662 14.6819C155.381 14.4629 155.059 14.3031 154.715 14.2122C154.383 14.1202 154.011 14.0742 153.598 14.0742C153.288 14.0723 152.978 14.098 152.672 14.1509C152.332 14.2118 152.025 14.309 151.751 14.4425C151.61 14.5109 151.475 14.591 151.347 14.6819C150.783 15.0805 150.396 15.6821 150.264 16.3609L143.756 16.1293C143.934 14.8121 144.449 13.5633 145.249 12.5038C145.822 11.7527 146.53 11.1158 147.336 10.6263C147.731 10.3834 148.143 10.1693 148.569 9.98554C149.978 9.37284 151.674 9.06649 153.656 9.06649C154.46 9.06383 155.263 9.12265 156.058 9.24246C156.567 9.32011 157.071 9.42807 157.567 9.56575C158.227 9.7468 158.868 9.99032 159.482 10.293C159.901 10.501 160.303 10.7417 160.684 11.0131C161.542 11.6145 162.247 12.4103 162.741 13.336C163.104 14.0302 163.334 14.7867 163.418 15.5661C163.453 15.8684 163.47 16.1724 163.47 16.4766V31.5865H156.831V28.4892H156.658C156.317 29.1497 155.863 29.7455 155.319 30.2501C155.263 30.301 155.207 30.3508 155.15 30.3997C154.592 30.8716 153.953 31.2382 153.265 31.4818C153.177 31.5137 153.089 31.5437 152.999 31.572C152.5 31.7275 151.988 31.835 151.469 31.8932C151.055 31.9405 150.638 31.9637 150.221 31.9627C149.56 31.9659 148.9 31.9077 148.25 31.7891C147.635 31.6768 147.035 31.4947 146.462 31.2464C145.37 30.7687 144.508 30.045 143.878 29.0754C143.283 28.1597 142.969 27.0224 142.936 25.6635C142.934 25.5827 142.933 25.5018 142.933 25.4209C142.933 24.1859 143.149 23.1438 143.582 22.2947C143.998 21.4661 144.613 20.7547 145.372 20.2251C146.132 19.6944 147.008 19.2916 147.999 19.0166C148.768 18.8052 149.551 18.6488 150.342 18.5486C150.619 18.5129 150.896 18.4832 151.174 18.4594C151.474 18.432 151.773 18.4026 152.073 18.3713C152.806 18.2943 153.438 18.2143 153.967 18.1313C154.051 18.1182 154.135 18.1045 154.219 18.0904C154.42 18.0569 154.62 18.0156 154.818 17.9668C155.209 17.8693 155.524 17.751 155.765 17.612C155.811 17.5853 155.856 17.5565 155.9 17.5259C156.043 17.4301 156.163 17.3039 156.252 17.1563C156.341 17.0087 156.397 16.8433 156.415 16.6717C156.423 16.607 156.427 16.5418 156.427 16.4766ZM156.47 23.6842V21.5711C156.268 21.6773 156.025 21.7738 155.741 21.8606C155.457 21.9474 155.147 22.0294 154.81 22.1066C154.474 22.1838 154.127 22.2513 153.771 22.3092C153.513 22.3513 153.254 22.392 152.995 22.4314C152.912 22.4439 152.829 22.4563 152.747 22.4685C152.157 22.5627 151.645 22.7028 151.211 22.8885C151.157 22.9115 151.104 22.9354 151.051 22.9605C150.857 23.0512 150.673 23.1613 150.502 23.2892C150.302 23.4379 150.127 23.6177 149.983 23.8217C149.786 24.1068 149.665 24.4374 149.631 24.7824C149.62 24.8791 149.615 24.9763 149.615 25.0736C149.612 25.3159 149.646 25.5573 149.714 25.7898C149.831 26.178 150.073 26.5165 150.402 26.7524C150.726 26.9872 151.095 27.1519 151.486 27.2358C151.758 27.2975 152.053 27.3293 152.37 27.3312C152.38 27.3313 152.39 27.3313 152.4 27.3313C152.825 27.334 153.249 27.2805 153.66 27.1724C153.935 27.0987 154.202 26.9968 154.457 26.8683C155.048 26.5767 155.553 26.1352 155.922 25.5874C156.233 25.1199 156.417 24.5794 156.456 24.0189C156.466 23.9076 156.47 23.7959 156.47 23.6842Z" fill="#222222" stroke="#222222" stroke-width="0.944882" stroke-linecap="round"/>
<path fill-rule="evenodd" clip-rule="evenodd" d="M174.827 31.5869H167.77V9.3564H174.625V13.4088H174.856C175.26 11.9422 175.919 10.8495 176.833 10.1307C177.741 9.41391 178.868 9.0331 180.023 9.05246C180.317 9.0529 180.611 9.06953 180.904 9.10229C180.947 9.10706 180.99 9.11216 181.033 9.11757C181.252 9.14455 181.469 9.18243 181.684 9.23107C181.79 9.25528 181.895 9.2826 182 9.31299V15.464C181.868 15.4191 181.733 15.3806 181.597 15.3485C181.333 15.2854 181.028 15.2322 180.679 15.189C180.454 15.1606 180.227 15.1375 180.001 15.1197C179.776 15.1024 179.564 15.0921 179.365 15.0888C179.32 15.0881 179.274 15.0877 179.229 15.0877C178.392 15.0877 177.639 15.2734 176.97 15.6449C176.313 16.0051 175.769 16.5412 175.397 17.1934C175.134 17.6582 174.96 18.1688 174.886 18.6983C174.846 18.9692 174.827 19.2426 174.827 19.5164V31.5869Z" fill="#222222" stroke="#222222" stroke-width="0.944882" stroke-linecap="round"/>
</svg>
