<svg width="128" height="86" viewBox="0 0 128 86" fill="none" xmlns="http://www.w3.org/2000/svg">
<rect width="128" height="86" rx="5" fill="#D9D9D9"/>
<path fill-rule="evenodd" clip-rule="evenodd" d="M24.471 72.587H17.6014L9 42.9463H16.8942L21.3537 62.369H21.599L26.6935 42.9463H33.13L38.2245 62.4125H38.4698L42.9437 42.9463H50.8235L42.2366 72.587H35.3526L30.0272 54.6115H29.7963L24.471 72.587Z" fill="#222222" stroke="#222222" stroke-width="0.944882" stroke-linecap="round"/>
<path fill-rule="evenodd" clip-rule="evenodd" d="M74.6649 61.4133V63.179H55.3984V59.0687H68.0984C68.096 58.6541 68.0335 58.2421 67.9129 57.8456C67.8276 57.5701 67.7107 57.3055 67.5645 57.057C67.225 56.475 66.7334 55.9971 66.1429 55.6748C65.6879 55.4261 65.1891 55.2685 64.6742 55.2107C64.4743 55.1869 64.2732 55.1752 64.072 55.1755C63.283 55.1755 62.5758 55.3516 61.9505 55.7038C61.3251 56.0559 60.8296 56.5335 60.464 57.1366C60.0984 57.7396 59.906 58.4222 59.8868 59.1844V63.3672C59.8846 63.7704 59.9239 64.1728 60.004 64.5679C60.0875 64.9788 60.2278 65.3759 60.4207 65.748C60.7767 66.4282 61.2818 66.9565 61.936 67.3328C62.3605 67.5732 62.8237 67.7371 63.3046 67.8171C63.6248 67.8718 63.9491 67.8986 64.274 67.8972C64.8993 67.8972 65.467 67.8104 65.977 67.6367C66.3141 67.524 66.6337 67.3643 66.9263 67.1622C67.0542 67.0731 67.1758 66.9754 67.2903 66.8697C67.6565 66.5294 67.937 66.1067 68.1085 65.6365C68.11 65.6327 68.1114 65.6288 68.1128 65.625L74.5928 65.8131C74.3234 67.27 73.7341 68.5364 72.8248 69.6122C72.1236 70.4333 71.2737 71.1137 70.3199 71.6174C69.9737 71.8033 69.6175 71.9697 69.253 72.1161C68.3862 72.4599 67.4824 72.7009 66.5599 72.8343C65.76 72.9517 64.9525 73.0092 64.1441 73.0062C63.1846 73.0113 62.2269 72.9227 61.2845 72.7416C60.1878 72.5328 59.1299 72.1559 58.1477 71.6241C56.492 70.7264 55.1443 69.3496 54.28 67.6729C53.7444 66.6372 53.3703 65.5254 53.1707 64.376C53.0064 63.4459 52.926 62.5027 52.9306 61.5581C52.9306 59.2617 53.3828 57.2523 54.2872 55.5301C55.1518 53.8495 56.4792 52.4531 58.1116 51.5065C59.2292 50.8631 60.456 50.4326 61.7298 50.2367C62.4567 50.121 63.1916 50.0641 63.9276 50.0665C64.8235 50.0625 65.7174 50.1497 66.5957 50.3268C67.1611 50.4424 67.7166 50.6022 68.2572 50.8046C69.5657 51.2967 70.6962 52.0252 71.6487 52.9901C72.3947 53.7528 73.0083 54.6352 73.4642 55.6008C73.6141 55.9135 73.7499 56.2327 73.8712 56.5576C74.1786 57.3915 74.3938 58.2566 74.513 59.1376C74.6166 59.8917 74.6674 60.6521 74.6649 61.4133Z" fill="#222222" stroke="#222222" stroke-width="0.944882" stroke-linecap="round"/>
<path fill-rule="evenodd" clip-rule="evenodd" d="M90.742 57.4766V57.4043C90.7445 57.1556 90.7112 56.9079 90.6432 56.6687C90.5306 56.2776 90.2974 55.9321 89.9771 55.6819C89.6963 55.4629 89.3741 55.3031 89.0301 55.2122C88.6982 55.1202 88.326 55.0742 87.9134 55.0742C87.6031 55.0723 87.2932 55.098 86.9874 55.1509C86.6477 55.2118 86.3406 55.309 86.0662 55.4425C85.925 55.5109 85.7898 55.591 85.662 55.6819C85.0986 56.0805 84.7108 56.6821 84.5796 57.3609L78.0709 57.1293C78.2494 55.8121 78.7639 54.5633 79.5645 53.5038C80.1369 52.7527 80.8447 52.1158 81.6513 51.6263C82.0463 51.3834 82.4582 51.1693 82.8839 50.9855C84.2934 50.3728 85.9891 50.0665 87.9711 50.0665C88.7751 50.0638 89.5782 50.1227 90.3733 50.2425C90.8822 50.3201 91.386 50.4281 91.8821 50.5658C92.5419 50.7468 93.1831 50.9903 93.7969 51.293C94.216 51.501 94.6181 51.7417 94.9994 52.0131C95.8575 52.6145 96.5621 53.4103 97.056 54.336C97.4192 55.0302 97.649 55.7867 97.7333 56.5661C97.7681 56.8684 97.7852 57.1724 97.7848 57.4766V72.5865H91.1461V69.4892H90.9729C90.6318 70.1497 90.1787 70.7455 89.6338 71.2501C89.5784 71.301 89.5221 71.3508 89.4648 71.3997C88.9071 71.8716 88.2687 72.2382 87.5805 72.4818C87.4925 72.5137 87.4037 72.5437 87.3145 72.572C86.8156 72.7275 86.3032 72.835 85.7841 72.8932C85.3698 72.9405 84.9532 72.9637 84.5363 72.9627C83.8753 72.9659 83.2154 72.9077 82.5651 72.7891C81.9504 72.6768 81.3504 72.4947 80.7768 72.2464C79.6848 71.7687 78.8237 71.045 78.1935 70.0754C77.5984 69.1597 77.2843 68.0224 77.2512 66.6635C77.2492 66.5827 77.2482 66.5018 77.2482 66.4209C77.2482 65.1859 77.4647 64.1438 77.8976 63.2947C78.3129 62.4661 78.9281 61.7547 79.6872 61.2251C80.4473 60.6944 81.3228 60.2916 82.3138 60.0166C83.0829 59.8052 83.866 59.6488 84.6572 59.5486C84.9337 59.5129 85.211 59.4832 85.4888 59.4594C85.7887 59.432 86.0885 59.4026 86.3881 59.3713C87.1213 59.2943 87.7527 59.2143 88.2822 59.1313C88.3662 59.1182 88.4501 59.1045 88.534 59.0904C88.7354 59.0569 88.9354 59.0156 89.1337 58.9668C89.5241 58.8693 89.8394 58.751 90.0797 58.612C90.1261 58.5853 90.1713 58.5565 90.2152 58.5259C90.3583 58.4301 90.4786 58.3039 90.5676 58.1563C90.6566 58.0087 90.7122 57.8433 90.7304 57.6717C90.7382 57.607 90.7421 57.5418 90.742 57.4766ZM90.7853 64.6842V62.5711C90.5833 62.6773 90.3403 62.7738 90.0565 62.8606C89.7727 62.9474 89.4624 63.0294 89.1257 63.1066C88.7889 63.1838 88.4425 63.2513 88.0865 63.3092C87.8279 63.3513 87.569 63.392 87.3099 63.4314C87.2272 63.4439 87.1446 63.4563 87.0619 63.4685C86.472 63.5627 85.96 63.7028 85.5258 63.8885C85.4721 63.9115 85.4189 63.9354 85.3662 63.9605C85.1726 64.0512 84.9887 64.1613 84.8172 64.2892C84.6171 64.4379 84.4419 64.6177 84.2981 64.8217C84.1014 65.1068 83.9802 65.4374 83.9459 65.7824C83.9353 65.8791 83.93 65.9763 83.9301 66.0736C83.9275 66.3159 83.961 66.5573 84.0295 66.7898C84.1462 67.178 84.3879 67.5165 84.7167 67.7524C85.0407 67.9872 85.4099 68.1519 85.8008 68.2358C86.0735 68.2975 86.3682 68.3293 86.6848 68.3312C86.6951 68.3313 86.7053 68.3313 86.7155 68.3313C87.1404 68.334 87.5638 68.2805 87.9748 68.1724C88.2502 68.0987 88.5173 67.9968 88.772 67.8683C89.3633 67.5767 89.8683 67.1352 90.2369 66.5874C90.5478 66.1199 90.7321 65.5794 90.7717 65.0189C90.7808 64.9076 90.7854 64.7959 90.7853 64.6842Z" fill="#222222" stroke="#222222" stroke-width="0.944882" stroke-linecap="round"/>
<path fill-rule="evenodd" clip-rule="evenodd" d="M109.143 72.5869H102.085V50.3564H108.941V54.4088H109.171C109.576 52.9422 110.235 51.8495 111.149 51.1307C112.056 50.4139 113.183 50.0331 114.338 50.0525C114.632 50.0529 114.926 50.0695 115.219 50.1023C115.262 50.1071 115.305 50.1122 115.348 50.1176C115.567 50.1445 115.784 50.1824 115.999 50.2311C116.105 50.2553 116.211 50.2826 116.315 50.313V56.464C116.183 56.4191 116.048 56.3806 115.912 56.3485C115.649 56.2854 115.343 56.2322 114.995 56.189C114.769 56.1606 114.543 56.1375 114.316 56.1197C114.091 56.1024 113.88 56.0921 113.68 56.0888C113.635 56.0881 113.59 56.0877 113.544 56.0877C112.707 56.0877 111.954 56.2734 111.286 56.6449C110.628 57.0051 110.084 57.5412 109.713 58.1934C109.449 58.6582 109.275 59.1688 109.201 59.6983C109.161 59.9692 109.142 60.2426 109.143 60.5164V72.5869Z" fill="#222222" stroke="#222222" stroke-width="0.944882" stroke-linecap="round"/>
<path fill-rule="evenodd" clip-rule="evenodd" d="M32.459 36.5802H25.3152V6.93945H45.491V12.7577H32.459V18.8363H44.2065V24.6689H32.459V36.5802Z" fill="#222222" stroke="#222222" stroke-width="0.944882" stroke-linecap="round"/>
<path fill-rule="evenodd" clip-rule="evenodd" d="M61.5247 21.4698V21.3974C61.5272 21.1488 61.494 20.9011 61.426 20.6619C61.3133 20.2707 61.0802 19.9253 60.7599 19.6751C60.479 19.456 60.1568 19.2963 59.8127 19.2054C59.481 19.1134 59.1088 19.0673 58.6961 19.0673C58.3858 19.0655 58.0759 19.0912 57.7702 19.1441C57.4304 19.205 57.1233 19.3022 56.849 19.4357C56.7078 19.504 56.5726 19.5841 56.4447 19.6751C55.8813 20.0737 55.4935 20.6753 55.3624 21.354L48.8535 21.1224C49.0321 19.8052 49.5466 18.5565 50.3473 17.497C50.9197 16.7458 51.6274 16.109 52.4339 15.6195C52.829 15.3766 53.2409 15.1624 53.6665 14.9787C55.0761 14.366 56.7718 14.0597 58.7538 14.0597C59.5578 14.057 60.3609 14.1158 61.156 14.2356C61.6649 14.3133 62.1688 14.4212 62.6649 14.5589C63.3247 14.74 63.9658 14.9835 64.5796 15.2862C64.9987 15.4941 65.4008 15.7349 65.7821 16.0063C66.6402 16.6076 67.3448 17.4035 67.8387 18.3291C68.2019 19.0233 68.4317 19.7799 68.516 20.5593C68.5508 20.8615 68.5679 21.1656 68.5674 21.4698V36.5796H61.9288V33.4824H61.7556C61.4146 34.1429 60.9614 34.7387 60.4165 35.2432C60.3611 35.2941 60.3047 35.344 60.2475 35.3928C59.6898 35.8647 59.0514 36.2314 58.3633 36.475C58.2752 36.5068 58.1864 36.5369 58.0971 36.5652C57.5983 36.7207 57.0859 36.8282 56.5667 36.8863C56.1525 36.9336 55.7359 36.9569 55.3191 36.9559C54.6581 36.959 53.9982 36.9009 53.3478 36.7823C52.7331 36.6699 52.1332 36.4878 51.5596 36.2395C50.4676 35.7619 49.6065 35.0382 48.9763 34.0686C48.3811 33.1528 48.067 32.0155 48.0338 30.6567C48.0319 30.5758 48.0309 30.495 48.031 30.4141C48.031 29.179 48.2475 28.137 48.6804 27.2879C49.0957 26.4593 49.7108 25.7479 50.4699 25.2183C51.23 24.6876 52.1056 24.2848 53.0966 24.0098C53.8656 23.7984 54.6487 23.642 55.4399 23.5417C55.7164 23.506 55.9937 23.4763 56.2716 23.4526C56.5715 23.4251 56.8713 23.3957 57.1708 23.3644C57.9041 23.2875 58.5355 23.2075 59.0649 23.1245C59.1489 23.1113 59.2328 23.0977 59.3166 23.0835C59.518 23.05 59.7181 23.0088 59.9164 22.9599C60.3068 22.8625 60.6222 22.7442 60.8625 22.6051C60.9088 22.5784 60.954 22.5497 60.9979 22.5191C61.141 22.4233 61.2613 22.2971 61.3503 22.1495C61.4394 22.0019 61.495 21.8365 61.5131 21.6649C61.521 21.6002 61.5248 21.535 61.5247 21.4698ZM61.568 28.6774V26.5643C61.3659 26.6704 61.123 26.7669 60.8392 26.8537C60.5554 26.9406 60.2451 27.0226 59.9084 27.0998C59.5716 27.177 59.2252 27.2445 58.8693 27.3024C58.6106 27.3445 58.3518 27.3852 58.0927 27.4245C58.01 27.4371 57.9273 27.4494 57.8445 27.4616C57.2547 27.5559 56.7426 27.6959 56.3085 27.8817C56.2548 27.9046 56.2016 27.9286 56.1488 27.9536C55.9553 28.0444 55.7714 28.1545 55.5999 28.2823C55.3998 28.4311 55.2246 28.6108 55.0809 28.8148C54.8842 29.0999 54.763 29.4305 54.7287 29.7755C54.718 29.8722 54.7128 29.9694 54.7129 30.0667C54.7103 30.3091 54.7438 30.5505 54.8123 30.7829C54.929 31.1711 55.1706 31.5096 55.4994 31.7456C55.8234 31.9804 56.1926 32.145 56.5835 32.2289C56.8562 32.2907 57.1509 32.3225 57.4675 32.3244C57.4777 32.3245 57.488 32.3245 57.4982 32.3245C57.9231 32.3271 58.3465 32.2737 58.7575 32.1656C59.033 32.0918 59.3001 31.9899 59.5548 31.8614C60.1461 31.5699 60.651 31.1283 61.0196 30.5806C61.3305 30.1131 61.5148 29.5726 61.5545 29.0121C61.5636 28.9007 61.5681 28.7891 61.568 28.6774Z" fill="#222222" stroke="#222222" stroke-width="0.944882" stroke-linecap="round"/>
<path fill-rule="evenodd" clip-rule="evenodd" d="M79.9253 36.5801H72.8682V14.3496H79.9253V36.5801ZM76.404 11.759C75.413 11.759 74.5615 11.4285 73.8495 10.7676C73.5221 10.4708 73.2561 10.1123 73.0666 9.7126C72.8744 9.29229 72.7771 8.83462 72.7816 8.37224C72.7777 7.94461 72.8619 7.52077 73.0288 7.12725C73.1958 6.73373 73.4419 6.37899 73.7518 6.08523C73.7838 6.05344 73.8164 6.02219 73.8495 5.99149C74.5615 5.3305 75.413 5 76.404 5C77.4046 5 78.2585 5.3305 78.9656 5.99149C79.2808 6.27948 79.5391 6.62445 79.727 7.00835C79.9285 7.43437 80.0309 7.90074 80.0263 8.37224C80.0313 8.80156 79.9484 9.22734 79.7827 9.62321C79.6169 10.0191 79.3719 10.3766 79.0627 10.6736C79.0309 10.7055 78.9985 10.7368 78.9656 10.7676C78.2745 11.4223 77.3545 11.7784 76.404 11.759Z" fill="#222222" stroke="#222222" stroke-width="0.944882" stroke-linecap="round"/>
<path fill-rule="evenodd" clip-rule="evenodd" d="M91.4563 36.5801H84.3992V14.3496H91.2543V18.4019H91.4852C91.8893 16.9354 92.5484 15.8427 93.4624 15.1238C94.3702 14.4071 95.4967 14.0263 96.6519 14.0456C96.9461 14.0461 97.2402 14.0627 97.5326 14.0954C97.5758 14.1002 97.619 14.1053 97.6621 14.1107C97.8808 14.1377 98.098 14.1756 98.3129 14.2242C98.4191 14.2484 98.5245 14.2758 98.629 14.3062V20.4571C98.4965 20.4122 98.362 20.3737 98.2258 20.3417C97.9625 20.2786 97.6567 20.2254 97.3085 20.1821C97.0827 20.1538 96.8563 20.1307 96.6295 20.1129C96.4051 20.0955 96.1933 20.0852 95.994 20.082C95.9487 20.0812 95.9034 20.0809 95.8581 20.0809C95.021 20.0809 94.2681 20.2666 93.5995 20.6381C92.9423 20.9983 92.3977 21.5343 92.0264 22.1866C91.7628 22.6514 91.5892 23.162 91.5149 23.6914C91.4751 23.9623 91.4556 24.2358 91.4563 24.5096V36.5801Z" fill="#222222" stroke="#222222" stroke-width="0.944882" stroke-linecap="round"/>
</svg>
