<svg width="1791.335" height="314.072" viewBox="0 0 1791.335 314.072" xmlns="http://www.w3.org/2000/svg"><g id="svgGroup" stroke-linecap="round" fill-rule="evenodd" font-size="9pt" stroke="#222222" stroke-width="0.25mm" fill="#222222" style="stroke:#222222;stroke-width:0.25mm;fill:#222222"><path d="M 70.313 309.951 L 0 309.951 L 0 19.041 L 198.58 19.041 L 198.58 76.144 L 70.313 76.144 L 70.313 135.803 L 185.938 135.803 L 185.938 193.047 L 70.313 193.047 L 70.313 309.951 Z" id="0"/><path d="M 356.392 161.655 L 356.392 160.945 A 25.386 25.386 0 0 0 355.42 153.726 A 18.933 18.933 0 0 0 348.864 144.041 A 25.95 25.95 0 0 0 339.542 139.431 Q 334.644 138.076 328.551 138.076 A 51.822 51.822 0 0 0 319.438 138.829 Q 314.421 139.726 310.371 141.691 A 27.643 27.643 0 0 0 306.392 144.041 A 26.284 26.284 0 0 0 295.739 160.519 L 231.676 158.246 A 75.826 75.826 0 0 1 246.378 122.664 A 74.205 74.205 0 0 1 266.916 104.237 A 95.273 95.273 0 0 1 279.048 97.948 Q 299.858 88.928 329.119 88.928 A 155.669 155.669 0 0 1 352.763 90.655 A 127.696 127.696 0 0 1 367.614 93.828 A 106.261 106.261 0 0 1 386.46 100.966 A 87.477 87.477 0 0 1 398.295 108.033 A 65.523 65.523 0 0 1 418.537 130.831 A 61.346 61.346 0 0 1 425.204 152.719 A 76.982 76.982 0 0 1 425.71 161.655 L 425.71 309.951 L 360.369 309.951 L 360.369 279.553 L 358.665 279.553 A 62.862 62.862 0 0 1 345.484 296.835 A 59.947 59.947 0 0 1 343.821 298.303 A 59.454 59.454 0 0 1 325.276 308.924 A 68.953 68.953 0 0 1 322.656 309.809 A 81.038 81.038 0 0 1 307.593 312.961 A 106.322 106.322 0 0 1 295.313 313.644 A 105.665 105.665 0 0 1 275.911 311.94 A 81.107 81.107 0 0 1 258.31 306.613 Q 242.188 299.581 232.884 285.306 Q 224.097 271.825 223.608 251.82 A 97.422 97.422 0 0 1 223.58 249.439 Q 223.58 231.257 229.972 218.757 A 54.622 54.622 0 0 1 247.585 198.445 Q 258.807 190.632 273.438 186.584 A 165.932 165.932 0 0 1 296.502 181.99 A 191.968 191.968 0 0 1 304.688 181.115 A 689.478 689.478 0 0 0 313.539 180.25 Q 324.365 179.117 332.181 177.895 A 206.522 206.522 0 0 0 334.659 177.493 A 78.711 78.711 0 0 0 340.562 176.28 Q 346.326 174.845 349.874 172.798 A 18.225 18.225 0 0 0 351.207 171.953 A 11.546 11.546 0 0 0 356.278 163.57 A 15.595 15.595 0 0 0 356.392 161.655 Z M 356.818 232.394 L 356.818 211.655 Q 353.835 213.218 349.645 214.496 Q 345.455 215.774 340.483 216.911 Q 335.511 218.047 330.256 218.899 A 715.804 715.804 0 0 1 322.612 220.098 A 627.664 627.664 0 0 1 320.17 220.462 Q 311.461 221.85 305.051 224.585 A 43.495 43.495 0 0 0 303.48 225.291 A 31.198 31.198 0 0 0 298.077 228.517 A 23.092 23.092 0 0 0 292.969 233.743 A 20.071 20.071 0 0 0 289.502 243.172 A 25.71 25.71 0 0 0 289.347 246.03 A 23.904 23.904 0 0 0 290.325 253.059 A 18.008 18.008 0 0 0 297.088 262.507 A 28.342 28.342 0 0 0 307.758 267.251 Q 311.784 268.16 316.459 268.188 A 49.788 49.788 0 0 0 316.761 268.189 A 47.68 47.68 0 0 0 329.156 266.629 A 40.964 40.964 0 0 0 337.003 263.644 A 37.185 37.185 0 0 0 351.42 251.073 A 31.797 31.797 0 0 0 356.685 235.679 A 39.766 39.766 0 0 0 356.818 232.394 Z" id="1"/><path d="M 537.5 309.951 L 468.04 309.951 L 468.04 91.769 L 537.5 91.769 L 537.5 309.951 Z M 502.841 66.343 Q 488.21 66.343 477.699 56.613 A 33.144 33.144 0 0 1 469.993 46.259 A 30.834 30.834 0 0 1 467.188 33.104 A 30.504 30.504 0 0 1 476.737 10.658 A 40.012 40.012 0 0 1 477.699 9.738 Q 488.21 0.007 502.841 0.007 Q 517.614 0.007 528.054 9.738 A 33.412 33.412 0 0 1 535.548 19.718 A 30.541 30.541 0 0 1 538.494 33.104 A 30.78 30.78 0 0 1 529.01 55.691 A 39.468 39.468 0 0 1 528.054 56.613 A 35.657 35.657 0 0 1 502.841 66.343 Z" id="2"/><path d="M 650.994 309.951 L 581.534 309.951 L 581.534 91.769 L 649.006 91.769 L 649.006 131.541 L 651.278 131.541 Q 657.244 109.951 670.739 99.368 A 49.411 49.411 0 0 1 702.131 88.786 A 79.181 79.181 0 0 1 710.8 89.275 A 87.517 87.517 0 0 1 712.074 89.425 A 65.331 65.331 0 0 1 718.48 90.539 A 54.862 54.862 0 0 1 721.591 91.343 L 721.591 151.712 A 43.265 43.265 0 0 0 717.623 150.579 Q 713.735 149.65 708.594 149.013 A 145.504 145.504 0 0 0 701.911 148.333 Q 698.598 148.078 695.656 148.03 A 82.162 82.162 0 0 0 694.318 148.019 Q 681.96 148.019 672.088 153.488 A 39.81 39.81 0 0 0 656.605 168.686 A 41.606 41.606 0 0 0 651.57 183.455 A 54.176 54.176 0 0 0 650.994 191.485 L 650.994 309.951 Z" id="3"/><path d="M 887.358 309.951 L 819.744 309.951 L 735.085 19.041 L 812.784 19.041 L 856.676 209.666 L 859.091 209.666 L 909.233 19.041 L 972.585 19.041 L 1022.727 210.093 L 1025.142 210.093 L 1069.176 19.041 L 1146.733 19.041 L 1062.216 309.951 L 994.46 309.951 L 942.045 133.53 L 939.773 133.53 L 887.358 309.951 Z" id="4"/><path d="M 1381.392 200.291 L 1381.392 217.621 L 1191.761 217.621 L 1191.761 177.28 L 1316.761 177.28 A 41.983 41.983 0 0 0 1314.935 165.276 A 36.58 36.58 0 0 0 1311.506 157.536 A 36.34 36.34 0 0 0 1297.514 143.97 A 39.338 39.338 0 0 0 1283.058 139.416 A 49.544 49.544 0 0 0 1277.131 139.07 Q 1265.483 139.07 1256.25 144.255 Q 1247.017 149.439 1241.619 158.317 Q 1236.222 167.195 1235.938 178.416 L 1235.938 219.468 A 57.535 57.535 0 0 0 1237.092 231.252 A 44.276 44.276 0 0 0 1241.193 242.834 Q 1246.449 252.848 1256.108 258.388 A 41.017 41.017 0 0 0 1269.578 263.141 A 55.446 55.446 0 0 0 1279.119 263.928 Q 1288.352 263.928 1295.881 261.371 A 37.23 37.23 0 0 0 1305.225 256.714 A 33.58 33.58 0 0 0 1308.807 253.843 A 31.044 31.044 0 0 0 1316.861 241.74 A 35.893 35.893 0 0 0 1316.903 241.627 L 1380.682 243.473 Q 1376.705 264.922 1363.281 280.76 A 83.993 83.993 0 0 1 1338.626 300.44 A 104.702 104.702 0 0 1 1328.125 305.334 A 117.756 117.756 0 0 1 1301.618 312.383 A 160.086 160.086 0 0 1 1277.841 314.07 A 145.409 145.409 0 0 1 1249.695 311.473 A 106.978 106.978 0 0 1 1218.821 300.505 A 92.238 92.238 0 0 1 1180.753 261.726 A 112.071 112.071 0 0 1 1169.835 229.369 A 154.269 154.269 0 0 1 1167.472 201.712 Q 1167.472 167.905 1180.824 142.55 A 96.986 96.986 0 0 1 1218.466 103.061 A 102.838 102.838 0 0 1 1254.078 90.598 A 135.129 135.129 0 0 1 1275.71 88.928 A 130.271 130.271 0 0 1 1301.971 91.482 A 108.936 108.936 0 0 1 1318.324 96.172 Q 1337.642 103.416 1351.705 117.621 A 94.099 94.099 0 0 1 1369.574 143.244 A 113.819 113.819 0 0 1 1373.58 152.635 A 119.323 119.323 0 0 1 1379.897 177.956 A 159.774 159.774 0 0 1 1381.392 200.291 Z" id="5"/><path d="M 1539.631 161.655 L 1539.631 160.945 A 25.386 25.386 0 0 0 1538.658 153.726 A 18.933 18.933 0 0 0 1532.102 144.041 A 25.95 25.95 0 0 0 1522.781 139.431 Q 1517.882 138.076 1511.79 138.076 A 51.822 51.822 0 0 0 1502.676 138.829 Q 1497.66 139.726 1493.609 141.691 A 27.643 27.643 0 0 0 1489.631 144.041 A 26.284 26.284 0 0 0 1478.977 160.519 L 1414.915 158.246 A 75.826 75.826 0 0 1 1429.616 122.664 A 74.205 74.205 0 0 1 1450.155 104.237 A 95.273 95.273 0 0 1 1462.287 97.948 Q 1483.097 88.928 1512.358 88.928 A 155.669 155.669 0 0 1 1536.002 90.655 A 127.696 127.696 0 0 1 1550.852 93.828 A 106.261 106.261 0 0 1 1569.699 100.966 A 87.477 87.477 0 0 1 1581.534 108.033 A 65.523 65.523 0 0 1 1601.776 130.831 A 61.346 61.346 0 0 1 1608.443 152.719 A 76.982 76.982 0 0 1 1608.949 161.655 L 1608.949 309.951 L 1543.608 309.951 L 1543.608 279.553 L 1541.903 279.553 A 62.862 62.862 0 0 1 1528.723 296.835 A 59.947 59.947 0 0 1 1527.06 298.303 A 59.454 59.454 0 0 1 1508.514 308.924 A 68.953 68.953 0 0 1 1505.895 309.809 A 81.038 81.038 0 0 1 1490.832 312.961 A 106.322 106.322 0 0 1 1478.551 313.644 A 105.665 105.665 0 0 1 1459.149 311.94 A 81.107 81.107 0 0 1 1441.548 306.613 Q 1425.426 299.581 1416.122 285.306 Q 1407.336 271.825 1406.847 251.82 A 97.422 97.422 0 0 1 1406.818 249.439 Q 1406.818 231.257 1413.21 218.757 A 54.622 54.622 0 0 1 1430.824 198.445 Q 1442.045 190.632 1456.676 186.584 A 165.932 165.932 0 0 1 1479.741 181.99 A 191.968 191.968 0 0 1 1487.926 181.115 A 689.478 689.478 0 0 0 1496.777 180.25 Q 1507.603 179.117 1515.42 177.895 A 206.522 206.522 0 0 0 1517.898 177.493 A 78.711 78.711 0 0 0 1523.801 176.28 Q 1529.564 174.845 1533.112 172.798 A 18.225 18.225 0 0 0 1534.446 171.953 A 11.546 11.546 0 0 0 1539.516 163.57 A 15.595 15.595 0 0 0 1539.631 161.655 Z M 1540.057 232.394 L 1540.057 211.655 Q 1537.074 213.218 1532.884 214.496 Q 1528.693 215.774 1523.722 216.911 Q 1518.75 218.047 1513.494 218.899 A 715.804 715.804 0 0 1 1505.85 220.098 A 627.664 627.664 0 0 1 1503.409 220.462 Q 1494.7 221.85 1488.29 224.585 A 43.495 43.495 0 0 0 1486.719 225.291 A 31.198 31.198 0 0 0 1481.316 228.517 A 23.092 23.092 0 0 0 1476.207 233.743 A 20.071 20.071 0 0 0 1472.74 243.172 A 25.71 25.71 0 0 0 1472.585 246.03 A 23.904 23.904 0 0 0 1473.563 253.059 A 18.008 18.008 0 0 0 1480.327 262.507 A 28.342 28.342 0 0 0 1490.997 267.251 Q 1495.023 268.16 1499.698 268.188 A 49.788 49.788 0 0 0 1500 268.189 A 47.68 47.68 0 0 0 1512.394 266.629 A 40.964 40.964 0 0 0 1520.241 263.644 A 37.185 37.185 0 0 0 1534.659 251.073 A 31.797 31.797 0 0 0 1539.923 235.679 A 39.766 39.766 0 0 0 1540.057 232.394 Z" id="6"/><path d="M 1720.739 309.951 L 1651.278 309.951 L 1651.278 91.769 L 1718.75 91.769 L 1718.75 131.541 L 1721.023 131.541 Q 1726.989 109.951 1740.483 99.368 A 49.411 49.411 0 0 1 1771.875 88.786 A 79.181 79.181 0 0 1 1780.544 89.275 A 87.517 87.517 0 0 1 1781.818 89.425 A 65.331 65.331 0 0 1 1788.224 90.539 A 54.862 54.862 0 0 1 1791.335 91.343 L 1791.335 151.712 A 43.265 43.265 0 0 0 1787.367 150.579 Q 1783.479 149.65 1778.338 149.013 A 145.504 145.504 0 0 0 1771.656 148.333 Q 1768.343 148.078 1765.401 148.03 A 82.162 82.162 0 0 0 1764.062 148.019 Q 1751.705 148.019 1741.832 153.488 A 39.81 39.81 0 0 0 1726.349 168.686 A 41.606 41.606 0 0 0 1721.314 183.455 A 54.176 54.176 0 0 0 1720.739 191.485 L 1720.739 309.951 Z" id="7"/></g></svg>