<svg width="895.668" height="157.036" viewBox="0 0 895.668 157.036" xmlns="http://www.w3.org/2000/svg"><g id="svgGroup" stroke-linecap="round" fill-rule="evenodd" font-size="9pt" stroke="#222222" stroke-width="0.25mm" fill="#222222" style="stroke:#222222;stroke-width:0.25mm;fill:#222222"><path d="M 35.156 154.975 L 0 154.975 L 0 9.521 L 99.29 9.521 L 99.29 38.072 L 35.156 38.072 L 35.156 67.901 L 92.969 67.901 L 92.969 96.524 L 35.156 96.524 L 35.156 154.975 Z" id="0"/><path d="M 178.196 80.828 L 178.196 80.472 A 12.693 12.693 0 0 0 177.71 76.863 A 9.466 9.466 0 0 0 174.432 72.021 Q 171.116 69.393 165.761 69.08 A 25.463 25.463 0 0 0 164.276 69.038 A 25.911 25.911 0 0 0 159.719 69.415 Q 157.211 69.863 155.185 70.845 A 13.821 13.821 0 0 0 153.196 72.021 Q 149.006 75.004 147.869 80.259 L 115.838 79.123 A 37.913 37.913 0 0 1 123.189 61.332 A 37.102 37.102 0 0 1 133.458 52.119 A 47.636 47.636 0 0 1 139.524 48.974 Q 149.11 44.819 162.282 44.492 A 91.746 91.746 0 0 1 164.56 44.464 A 77.834 77.834 0 0 1 176.382 45.328 A 63.848 63.848 0 0 1 183.807 46.914 A 53.13 53.13 0 0 1 193.23 50.483 A 43.738 43.738 0 0 1 199.148 54.016 A 32.762 32.762 0 0 1 209.268 65.416 A 30.673 30.673 0 0 1 212.602 76.36 A 38.491 38.491 0 0 1 212.855 80.828 L 212.855 154.975 L 180.185 154.975 L 180.185 139.776 L 179.332 139.776 A 31.431 31.431 0 0 1 172.742 148.417 A 29.973 29.973 0 0 1 171.911 149.151 A 29.727 29.727 0 0 1 162.638 154.462 A 34.476 34.476 0 0 1 161.328 154.904 A 40.519 40.519 0 0 1 153.796 156.481 A 53.161 53.161 0 0 1 147.656 156.822 Q 137.216 156.822 129.155 153.306 A 28.32 28.32 0 0 1 116.442 142.653 A 27.51 27.51 0 0 1 112.712 133.609 Q 111.79 129.527 111.79 124.72 A 42.957 42.957 0 0 1 112.307 117.864 Q 113.076 113.114 114.986 109.379 A 27.311 27.311 0 0 1 123.793 99.222 A 40.374 40.374 0 0 1 133.168 94.422 A 48.101 48.101 0 0 1 136.719 93.292 A 82.966 82.966 0 0 1 148.251 90.995 A 95.984 95.984 0 0 1 152.344 90.558 A 344.739 344.739 0 0 0 156.769 90.125 Q 163.068 89.466 167.33 88.747 A 39.356 39.356 0 0 0 170.281 88.14 Q 173.163 87.422 174.937 86.399 A 9.113 9.113 0 0 0 175.604 85.977 A 5.773 5.773 0 0 0 178.139 81.785 A 7.797 7.797 0 0 0 178.196 80.828 Z M 178.409 116.197 L 178.409 105.828 Q 177.127 106.499 175.4 107.065 A 29.2 29.2 0 0 1 174.822 107.248 A 59.405 59.405 0 0 1 172.63 107.869 A 74.602 74.602 0 0 1 170.241 108.455 Q 167.756 109.024 165.128 109.45 A 357.898 357.898 0 0 1 161.306 110.049 A 313.858 313.858 0 0 1 160.085 110.231 Q 155.185 111.012 151.74 112.646 Q 148.295 114.279 146.484 116.872 A 10.035 10.035 0 0 0 144.751 121.586 A 12.855 12.855 0 0 0 144.673 123.015 A 11.952 11.952 0 0 0 145.162 126.529 A 9.004 9.004 0 0 0 148.544 131.254 A 14.171 14.171 0 0 0 153.879 133.626 Q 155.892 134.08 158.23 134.094 A 24.883 24.883 0 0 0 158.381 134.095 A 23.84 23.84 0 0 0 164.578 133.314 A 20.482 20.482 0 0 0 168.501 131.822 A 18.592 18.592 0 0 0 175.71 125.536 A 15.898 15.898 0 0 0 178.342 117.839 A 19.883 19.883 0 0 0 178.409 116.197 Z" id="1"/><path d="M 268.75 154.975 L 234.02 154.975 L 234.02 45.884 L 268.75 45.884 L 268.75 154.975 Z M 251.42 33.171 Q 244.105 33.171 238.849 28.306 A 16.572 16.572 0 0 1 234.996 23.13 A 15.417 15.417 0 0 1 233.594 16.552 Q 233.594 9.734 238.849 4.869 Q 244.105 0.004 251.42 0.004 Q 258.807 0.004 264.027 4.869 A 16.706 16.706 0 0 1 267.774 9.859 A 15.271 15.271 0 0 1 269.247 16.552 A 15.39 15.39 0 0 1 264.505 27.846 A 19.734 19.734 0 0 1 264.027 28.306 A 17.828 17.828 0 0 1 251.42 33.171 Z" id="2"/><path d="M 325.497 154.975 L 290.767 154.975 L 290.767 45.884 L 324.503 45.884 L 324.503 65.771 L 325.639 65.771 A 40.241 40.241 0 0 1 328.269 58.722 Q 331.047 53.074 335.369 49.684 A 24.706 24.706 0 0 1 351.065 44.393 A 39.591 39.591 0 0 1 355.4 44.638 A 43.76 43.76 0 0 1 356.037 44.713 Q 358.594 45.032 360.795 45.671 L 360.795 75.856 Q 358.31 75.004 354.297 74.507 Q 350.707 74.062 347.828 74.015 A 41.082 41.082 0 0 0 347.159 74.009 A 24.015 24.015 0 0 0 340.26 74.973 A 21.158 21.158 0 0 0 336.044 76.744 Q 331.108 79.478 328.303 84.343 A 20.803 20.803 0 0 0 325.785 91.728 A 27.088 27.088 0 0 0 325.497 95.742 L 325.497 154.975 Z" id="3"/><path d="M 443.679 154.975 L 409.872 154.975 L 367.543 9.521 L 406.392 9.521 L 428.338 104.833 L 429.545 104.833 L 454.616 9.521 L 486.293 9.521 L 511.364 105.046 L 512.571 105.046 L 534.588 9.521 L 573.366 9.521 L 531.108 154.975 L 497.23 154.975 L 471.023 66.765 L 469.886 66.765 L 443.679 154.975 Z" id="4"/><path d="M 690.696 100.146 L 690.696 108.811 L 595.881 108.811 L 595.881 88.64 L 658.381 88.64 A 20.991 20.991 0 0 0 657.468 82.638 A 18.29 18.29 0 0 0 655.753 78.768 Q 653.196 74.436 648.757 71.985 A 19.669 19.669 0 0 0 641.529 69.708 A 24.772 24.772 0 0 0 638.565 69.535 A 22.42 22.42 0 0 0 632.155 70.425 A 19.592 19.592 0 0 0 628.125 72.127 Q 623.509 74.72 620.81 79.159 A 19.654 19.654 0 0 0 618.03 87.995 A 23.613 23.613 0 0 0 617.969 89.208 L 617.969 109.734 A 28.767 28.767 0 0 0 618.546 115.626 A 22.138 22.138 0 0 0 620.597 121.417 Q 623.224 126.424 628.054 129.194 A 20.508 20.508 0 0 0 634.789 131.57 A 27.723 27.723 0 0 0 639.56 131.964 A 28.85 28.85 0 0 0 644.354 131.582 A 23.031 23.031 0 0 0 647.94 130.686 A 18.615 18.615 0 0 0 652.613 128.357 A 16.79 16.79 0 0 0 654.403 126.921 A 15.522 15.522 0 0 0 658.431 120.87 A 17.934 17.934 0 0 0 658.452 120.813 L 690.341 121.737 A 39.394 39.394 0 0 1 681.641 140.38 A 41.996 41.996 0 0 1 669.313 150.22 A 52.351 52.351 0 0 1 664.062 152.667 A 58.878 58.878 0 0 1 650.809 156.191 A 80.043 80.043 0 0 1 638.92 157.035 A 72.704 72.704 0 0 1 624.848 155.737 A 53.489 53.489 0 0 1 609.411 150.252 A 46.119 46.119 0 0 1 590.376 130.863 Q 583.736 118.257 583.736 100.856 A 72.597 72.597 0 0 1 585.203 85.938 A 55.926 55.926 0 0 1 590.412 71.275 A 48.493 48.493 0 0 1 609.233 51.531 A 51.419 51.419 0 0 1 627.039 45.299 A 67.565 67.565 0 0 1 637.855 44.464 A 65.136 65.136 0 0 1 650.986 45.741 A 54.468 54.468 0 0 1 659.162 48.086 A 45.797 45.797 0 0 1 675.852 58.811 A 47.049 47.049 0 0 1 684.787 71.622 A 56.91 56.91 0 0 1 686.79 76.318 A 59.661 59.661 0 0 1 689.948 88.978 A 79.887 79.887 0 0 1 690.696 100.146 Z" id="5"/><path d="M 769.815 80.828 L 769.815 80.472 A 12.693 12.693 0 0 0 769.329 76.863 A 9.466 9.466 0 0 0 766.051 72.021 Q 762.735 69.393 757.381 69.08 A 25.463 25.463 0 0 0 755.895 69.038 A 25.911 25.911 0 0 0 751.338 69.415 Q 748.83 69.863 746.805 70.845 A 13.821 13.821 0 0 0 744.815 72.021 Q 740.625 75.004 739.489 80.259 L 707.457 79.123 A 37.913 37.913 0 0 1 714.808 61.332 A 37.102 37.102 0 0 1 725.077 52.119 A 47.636 47.636 0 0 1 731.143 48.974 Q 740.729 44.819 753.901 44.492 A 91.746 91.746 0 0 1 756.179 44.464 A 77.834 77.834 0 0 1 768.001 45.328 A 63.848 63.848 0 0 1 775.426 46.914 A 53.13 53.13 0 0 1 784.849 50.483 A 43.738 43.738 0 0 1 790.767 54.016 A 32.762 32.762 0 0 1 800.888 65.416 A 30.673 30.673 0 0 1 804.221 76.36 A 38.491 38.491 0 0 1 804.474 80.828 L 804.474 154.975 L 771.804 154.975 L 771.804 139.776 L 770.952 139.776 A 31.431 31.431 0 0 1 764.361 148.417 A 29.973 29.973 0 0 1 763.53 149.151 A 29.727 29.727 0 0 1 754.257 154.462 A 34.476 34.476 0 0 1 752.947 154.904 A 40.519 40.519 0 0 1 745.416 156.481 A 53.161 53.161 0 0 1 739.276 156.822 Q 728.835 156.822 720.774 153.306 A 28.32 28.32 0 0 1 708.061 142.653 A 27.51 27.51 0 0 1 704.332 133.609 Q 703.409 129.527 703.409 124.72 A 42.957 42.957 0 0 1 703.926 117.864 Q 704.695 113.114 706.605 109.379 A 27.311 27.311 0 0 1 715.412 99.222 A 40.374 40.374 0 0 1 724.787 94.422 A 48.101 48.101 0 0 1 728.338 93.292 A 82.966 82.966 0 0 1 739.87 90.995 A 95.984 95.984 0 0 1 743.963 90.558 A 344.739 344.739 0 0 0 748.389 90.125 Q 754.688 89.466 758.949 88.747 A 39.356 39.356 0 0 0 761.901 88.14 Q 764.782 87.422 766.556 86.399 A 9.113 9.113 0 0 0 767.223 85.977 A 5.773 5.773 0 0 0 769.758 81.785 A 7.797 7.797 0 0 0 769.815 80.828 Z M 770.028 116.197 L 770.028 105.828 Q 768.747 106.499 767.019 107.065 A 29.2 29.2 0 0 1 766.442 107.248 A 59.405 59.405 0 0 1 764.249 107.869 A 74.602 74.602 0 0 1 761.861 108.455 Q 759.375 109.024 756.747 109.45 A 357.898 357.898 0 0 1 752.925 110.049 A 313.858 313.858 0 0 1 751.705 110.231 Q 746.804 111.012 743.359 112.646 Q 739.915 114.279 738.104 116.872 A 10.035 10.035 0 0 0 736.37 121.586 A 12.855 12.855 0 0 0 736.293 123.015 A 11.952 11.952 0 0 0 736.782 126.529 A 9.004 9.004 0 0 0 740.163 131.254 A 14.171 14.171 0 0 0 745.498 133.626 Q 747.511 134.08 749.849 134.094 A 24.883 24.883 0 0 0 750 134.095 A 23.84 23.84 0 0 0 756.197 133.314 A 20.482 20.482 0 0 0 760.121 131.822 A 18.592 18.592 0 0 0 767.33 125.536 A 15.898 15.898 0 0 0 769.962 117.839 A 19.883 19.883 0 0 0 770.028 116.197 Z" id="6"/><path d="M 860.369 154.975 L 825.639 154.975 L 825.639 45.884 L 859.375 45.884 L 859.375 65.771 L 860.511 65.771 A 40.241 40.241 0 0 1 863.142 58.722 Q 865.919 53.074 870.241 49.684 A 24.706 24.706 0 0 1 885.938 44.393 A 39.591 39.591 0 0 1 890.272 44.638 A 43.76 43.76 0 0 1 890.909 44.713 Q 893.466 45.032 895.668 45.671 L 895.668 75.856 Q 893.182 75.004 889.169 74.507 Q 885.579 74.062 882.7 74.015 A 41.082 41.082 0 0 0 882.031 74.009 A 24.015 24.015 0 0 0 875.132 74.973 A 21.158 21.158 0 0 0 870.916 76.744 Q 865.98 79.478 863.175 84.343 A 20.803 20.803 0 0 0 860.657 91.728 A 27.088 27.088 0 0 0 860.369 95.742 L 860.369 154.975 Z" id="7"/></g></svg>